<svg data-v-0dd9719b="" version="1.0" xmlns="http://www.w3.org/2000/svg" xmlns:xlink="http://www.w3.org/1999/xlink" width="100%" height="100%" viewBox="0 0 340.000000 250.000000" preserveAspectRatio="xMidYMid meet" color-interpolation-filters="sRGB" style="margin: auto;"> <rect data-v-0dd9719b="" x="0" y="0" width="100%" height="100%" fill="#ffffff" fill-opacity="1" class="background"></rect> <rect data-v-0dd9719b="" x="0" y="0" width="100%" height="100%" fill="url(#watermark)" fill-opacity="1" class="watermarklayer"></rect> <g data-v-0dd9719b="" fill="#ed632b" class="icon-text-wrapper icon-svg-group iconsvg" transform="translate(66.2750015258789,94.96816444396973)"><g class="iconsvg-imagesvg" transform="translate(0,0)"><g><rect fill="#ed632b" fill-opacity="0" stroke-width="2" x="0" y="0" width="60" height="60.06366748753678" class="image-rect"></rect> <svg filter="url(#colors4900714803)" x="0" y="0" width="60" height="60.06366748753678" filtersec="colorsf107355934" class="image-svg-svg primary" style="overflow: visible;"><svg version="1.1" id="图层_1" xmlns:cc="http://creativecommons.org/ns#" xmlns:dc="http://purl.org/dc/elements/1.1/" xmlns:inkscape="http://www.inkscape.org/namespaces/inkscape" xmlns:rdf="http://www.w3.org/1999/02/22-rdf-syntax-ns#" xmlns:sodipodi="http://sodipodi.sourceforge.net/DTD/sodipodi-0.dtd" xmlns:svg="http://www.w3.org/2000/svg" xmlns="http://www.w3.org/2000/svg" xmlns:xlink="http://www.w3.org/1999/xlink" x="0px" y="0px" viewBox="1.0700000524520874 1.25 125.56698608398438 125.69999694824219" enable-background="new 0 0 128 128" xml:space="preserve">
<path fill="#0F0E0E" d="M31.38,1.25c-0.26,0-0.52,0-0.78,0.13c-0.13,0-0.26,0.13-0.39,0.13c-0.13,0-0.26,0.13-0.39,0.13
	c-0.13,0-0.26,0.13-0.39,0.26c-0.13,0-0.26,0.13-0.26,0.13C28.9,2.16,28.77,2.3,28.5,2.56L2.37,28.69
	c-0.13,0.13-0.39,0.39-0.52,0.65c0,0.13-0.13,0.13-0.13,0.26C1.59,29.73,1.59,29.87,1.46,30c0,0.13-0.13,0.26-0.13,0.39
	c0,0.13-0.13,0.26-0.13,0.39c0,0.26-0.13,0.52-0.13,0.78v91.47c0,2.22,1.7,3.92,3.92,3.92h91.47c0.26,0,0.52,0,0.78-0.13
	c0.13,0,0.26-0.13,0.39-0.13c0.13,0,0.26-0.13,0.39-0.13s0.26-0.13,0.39-0.26c0.13,0,0.26-0.13,0.26-0.13
	c0.26-0.13,0.39-0.26,0.65-0.52l26.13-26.13c0.78-0.78,1.18-1.7,1.18-2.74V5.17c0.13-2.22-1.57-3.92-3.79-3.92H31.38z M31.38,10.66
	v16.73h63.77l11.89-11.89c1.57-1.57,4.05-1.57,5.49,0c1.57,1.57,1.57,4.05,0,5.49l-11.89,11.89v63.77h16.73l-22.21,22.21H9.17V32.87
	L31.38,10.66z M31.38,35.22v61.41h61.41V35.22H31.38z"></path>
</svg></svg> <defs><filter id="colors4900714803"><feColorMatrix type="matrix" values="0 0 0 0 0.92578125  0 0 0 0 0.38671875  0 0 0 0 0.16796875  0 0 0 1 0" class="icon-fecolormatrix"></feColorMatrix></filter> <filter id="colorsf107355934"><feColorMatrix type="matrix" values="0 0 0 0 0.99609375  0 0 0 0 0.99609375  0 0 0 0 0.99609375  0 0 0 1 0" class="icon-fecolormatrix"></feColorMatrix></filter> <filter id="colorsb9615158484"><feColorMatrix type="matrix" values="0 0 0 0 0  0 0 0 0 0  0 0 0 0 0  0 0 0 1 0" class="icon-fecolormatrix"></feColorMatrix></filter></defs></g></g> <g transform="translate(67,4.150583267211914)"><g data-gra="path-name" fill-rule="" class="tp-name iconsvg-namesvg" transform="translate(0,0)"><g transform="scale(1)"><g><path d="M32.85-23.8Q33.3-23.8 33.64-23.49 33.98-23.18 33.98-22.72L33.98-22.72Q33.98-22.27 33.66-21.94 33.34-21.6 32.85-21.6L32.85-21.6 26.28-21.6 26.28 3.28Q26.28 4.14 24.97 4.14L24.97 4.14Q24.48 4.14 23.96 4.03 23.45 3.92 23.31 3.87L23.31 3.87 23.31 1.3 11.52 1.3 11.52 3.28Q11.52 4.14 10.3 4.14L10.3 4.14Q9.81 4.14 9.31 4.03 8.82 3.92 8.69 3.87L8.69 3.87 8.69-21.6 1.75-21.6Q1.53-21.6 1.35-21.76 1.17-21.91 1.17-22.18L1.17-22.18Q1.17-22.41 1.35-22.57 1.53-22.72 1.75-22.72L1.75-22.72 8.69-22.72 8.69-31.05Q8.82-31.09 9.29-31.23 9.76-31.36 10.26-31.36L10.26-31.36Q11.52-31.36 11.52-30.24L11.52-30.24 11.52-22.72 23.31-22.72 23.31-31.05Q23.45-31.09 23.96-31.23 24.48-31.36 24.97-31.36L24.97-31.36Q26.28-31.36 26.28-30.24L26.28-30.24 26.28-22.72 29.79-22.72Q30.6-22.72 31.03-22.9 31.45-23.09 31.95-23.4L31.95-23.4Q32.45-23.8 32.85-23.8L32.85-23.8ZM11.52-11.88L23.31-11.88 23.31-21.6 11.52-21.6 11.52-11.88ZM11.52-10.71L11.52 0.14 23.31 0.14 23.31-10.71 11.52-10.71ZM68.98-22.99Q69.44-22.99 69.77-22.66 70.11-22.32 70.11-21.87L70.11-21.87Q70.11-21.42 69.77-21.11 69.44-20.79 68.98-20.79L68.98-20.79 65.3-20.79 65.3-14.94Q65.3-14.08 63.99-14.08L63.99-14.08Q63.54-14.08 63.07-14.17 62.59-14.26 62.46-14.31L62.46-14.31 62.46-15.25 54.45-15.25 54.45 4.27Q54.45 5.13 53.23 5.13L53.23 5.13Q52.78 5.13 52.31 5.02 51.84 4.91 51.7 4.86L51.7 4.86 51.7-15.25 41.4-15.25Q41.17-15.25 40.99-15.43 40.81-15.62 40.81-15.84L40.81-15.84Q40.81-16.06 40.99-16.25 41.17-16.43 41.4-16.43L41.4-16.43 51.7-16.43 51.7-20.79 37.62-20.79Q37.4-20.79 37.22-20.95 37.03-21.11 37.03-21.33L37.03-21.33Q37.03-21.6 37.22-21.76 37.4-21.91 37.62-21.91L37.62-21.91 51.7-21.91 51.7-26.28 41.4-26.28Q41.17-26.28 40.99-26.44 40.81-26.59 40.81-26.82L40.81-26.82Q40.81-27.09 40.99-27.25 41.17-27.4 41.4-27.4L41.4-27.4 51.7-27.4 51.7-31.23Q51.84-31.27 52.31-31.41 52.78-31.54 53.23-31.54L53.23-31.54Q54.45-31.54 54.45-30.42L54.45-30.42 54.45-27.4 62.46-27.4 62.46-28.21Q62.59-28.26 63.07-28.39 63.54-28.53 64.03-28.53L64.03-28.53Q65.3-28.53 65.3-27.4L65.3-27.4 65.3-21.91 65.92-21.91Q66.73-21.91 67.19-22.09 67.63-22.27 68.04-22.59L68.04-22.59Q68.27-22.77 68.49-22.88 68.72-22.99 68.98-22.99L68.98-22.99ZM62.46-26.28L54.45-26.28 54.45-21.91 62.46-21.91 62.46-26.28ZM54.45-16.38L62.46-16.38 62.46-20.79 54.45-20.79 54.45-16.38ZM40.99-12.55Q41.13-12.6 41.6-12.76 42.08-12.91 42.57-12.91L42.57-12.91Q43.74-12.91 43.74-11.74L43.74-11.74 43.74-6.43Q43.7-2.7 42.37 0.29 41.04 3.28 37.58 5.22L37.58 5.22 37.22 4.77Q39.42 2.65 40.21-0.16 40.99-2.97 40.99-6.48L40.99-6.48 40.99-12.55ZM62.77-12.6Q62.91-12.64 63.41-12.78 63.9-12.91 64.39-12.91L64.39-12.91Q65.66-12.91 65.66-11.79L65.66-11.79 65.66 4.41Q65.66 5.22 64.39 5.22L64.39 5.22Q63.9 5.22 63.41 5.13 62.91 5.04 62.77 5L62.77 5 62.77-12.6ZM47.52-10.93Q47.61-10.98 47.88-11.03 48.15-11.07 48.55-11.07L48.55-11.07Q50.04-11.07 50.04-9.95L50.04-9.95Q50.04-9.54 49.86-9.04L49.86-9.04Q48.91-5.85 47.54-3.13 46.17-0.4 44.5 1.4L44.5 1.4 43.97 1.03Q45.13-1.26 46.08-4.43 47.02-7.6 47.52-10.93L47.52-10.93ZM55.66-10.8L56.16-11.03Q60.61-6.43 60.61-3.1L60.61-3.1Q60.61-1.93 60.14-0.99 59.67-0.04 58.86 0.9L58.86 0.9Q58.72-1.44 57.76-4.81 56.79-8.19 55.66-10.8L55.66-10.8ZM102.47-14.17Q98.59-15.79 96.08-17.91L96.08-17.91Q91.8-14.63 86.13-13L86.13-13 85.86-13.59Q91.03-15.79 94.55-19.3L94.55-19.3Q92.47-21.55 91.26-23.94L91.26-23.94Q89.23-21.02 86.72-19.17L86.72-19.17 86.27-19.57Q88.06-21.6 89.55-24.91 91.03-28.21 91.75-31.5L91.75-31.5Q91.84-31.5 92.18-31.54 92.52-31.59 92.97-31.59L92.97-31.59Q94.72-31.59 94.72-30.64L94.72-30.64Q94.72-30.38 94.59-30.02L94.59-30.02Q94.05-28.75 93.24-27.13L93.24-27.13 99.67-27.13 99.99-27.9Q100.03-27.9 100.19-27.92 100.35-27.95 100.58-27.95L100.58-27.95Q101.34-27.95 101.97-27.68 102.6-27.4 102.6-26.68L102.6-26.68Q102.6-26.23 102.28-25.61L102.28-25.61Q100.71-22.32 97.78-19.39L97.78-19.39Q101.75-17.23 106.56-16.38L106.56-16.38Q106.06-16.34 105.77-16.04 105.48-15.75 105.12-15.16L105.12-15.16Q104.72-14.49 104.4-14.2 104.09-13.9 103.55-13.9L103.55-13.9Q103.09-13.9 102.47-14.17L102.47-14.17ZM83.2-23.54Q83.34-23.58 83.72-23.71 84.11-23.85 84.51-23.85L84.51-23.85Q85.55-23.85 85.55-22.72L85.55-22.72 85.55-1.67Q85.55-0.81 84.47-0.81L84.47-0.81Q84.11-0.81 83.72-0.9 83.34-0.99 83.2-1.03L83.2-1.03 83.2-4.86 80.86-4.14 75.28-2.52Q74.88-2.38 74.52-2.38L74.52-2.38Q73.17-2.38 73.17-4.14L73.17-4.14Q73.17-4.37 73.19-4.5 73.22-4.63 73.22-4.68L73.22-4.68 74.16-4.81 74.16-23.54Q74.3-23.58 74.68-23.71 75.06-23.85 75.42-23.85L75.42-23.85Q76.45-23.85 76.45-22.72L76.45-22.72 76.45-5.13 78.66-5.44 78.66-30.33Q78.8-30.38 79.18-30.51 79.56-30.64 79.97-30.64L79.97-30.64Q81-30.64 81-29.52L81-29.52 81-5.8 83.2-6.12 83.2-23.54ZM91.8-24.7Q93.19-22.45 95.81-20.65L95.81-20.65Q98.01-23.18 99.18-26.01L99.18-26.01 92.61-26.01Q91.94-24.84 91.8-24.7L91.8-24.7ZM104.76-3.06Q105.21-3.06 105.55-2.72 105.88-2.38 105.88-1.93L105.88-1.93Q105.88-1.48 105.55-1.15 105.21-0.81 104.76-0.81L104.76-0.81 96.97-0.81 96.97 4.37Q96.97 5.22 95.76 5.22L95.76 5.22Q95.31 5.22 94.86 5.13 94.41 5.04 94.28 5L94.28 5 94.28-0.81 86.85-0.81Q86.63-0.81 86.44-0.99 86.27-1.17 86.27-1.4L86.27-1.4Q86.27-1.62 86.44-1.8 86.63-1.98 86.85-1.98L86.85-1.98 94.28-1.98 94.28-5.85 88.34-5.85Q88.11-5.85 87.95-6.03 87.8-6.21 87.8-6.43L87.8-6.43Q87.8-6.66 87.95-6.84 88.11-7.02 88.34-7.02L88.34-7.02 94.28-6.97 94.28-10.75 87.8-10.75Q87.57-10.75 87.39-10.91 87.21-11.07 87.21-11.29L87.21-11.29Q87.21-11.52 87.39-11.7 87.57-11.88 87.8-11.88L87.8-11.88 94.28-11.88 94.28-15.07Q94.41-15.12 94.86-15.25 95.31-15.39 95.76-15.39L95.76-15.39Q96.97-15.39 96.97-14.26L96.97-14.26 96.97-11.88 100.17-11.88Q100.98-11.88 101.43-12.06 101.88-12.24 102.33-12.6L102.33-12.6Q102.42-12.64 102.67-12.8 102.91-12.96 103.23-12.96L103.23-12.96Q103.72-12.96 104.04-12.64 104.35-12.33 104.35-11.83L104.35-11.83Q104.35-11.38 104.02-11.07 103.68-10.75 103.23-10.75L103.23-10.75 96.97-10.75 96.97-6.97 99.63-6.97Q100.44-6.97 100.89-7.15 101.34-7.33 101.79-7.69L101.79-7.69Q102.02-7.88 102.24-7.99 102.47-8.1 102.69-8.1L102.69-8.1Q103.14-8.1 103.48-7.76 103.81-7.42 103.81-6.97L103.81-6.97Q103.81-6.52 103.5-6.19 103.19-5.85 102.69-5.85L102.69-5.85 96.97-5.85 96.97-1.98 101.7-1.98Q102.51-1.98 102.96-2.16 103.41-2.34 103.81-2.65L103.81-2.65Q104.04-2.83 104.27-2.95 104.49-3.06 104.76-3.06L104.76-3.06ZM138.65-24.97Q138.87-24.97 139.59-24.88 140.31-24.79 140.96-24.46 141.62-24.12 141.62-23.49L141.62-23.49Q141.62-23.13 141.21-22.5L141.21-22.5Q139.37-19.93 137.88-18.72L137.88-18.72 137.43-18.99Q137.93-20.93 138.28-22.99L138.28-22.99 127.26-22.99 127.26-13.63Q127.26-12.78 125.95-12.78L125.95-12.78Q125.5-12.78 125.03-12.87 124.56-12.96 124.42-13L124.42-13 124.42-22.99 114.34-22.99Q114.44-22.27 114.44-21.87L114.44-21.87Q114.44-20.38 113.85-19.35 113.27-18.31 112.19-18.31L112.19-18.31Q111.24-18.31 110.16-19.21L110.16-19.21Q111.28-20.11 112.12-21.87 112.95-23.63 113.08-25.65L113.08-25.65 113.72-25.7 114.17-24.21 124.42-24.21 124.42-27.72 113.44-27.72Q113.22-27.72 113.04-27.9 112.86-28.08 112.86-28.3L112.86-28.3Q112.86-28.53 113.04-28.71 113.22-28.89 113.44-28.89L113.44-28.89 125.86-28.89 126.09-28.89 135.09-28.89Q135.9-28.89 136.35-29.07 136.8-29.25 137.25-29.61L137.25-29.61Q137.34-29.65 137.59-29.81 137.84-29.97 138.15-29.97L138.15-29.97Q138.65-29.97 138.96-29.65 139.28-29.34 139.28-28.84L139.28-28.84Q139.28-28.39 138.94-28.06 138.6-27.72 138.15-27.72L138.15-27.72 127.26-27.72 127.26-24.21 138.51-24.21 138.65-24.97ZM115.56-18.54Q115.33-18.54 115.16-18.72 114.97-18.9 114.97-19.13L114.97-19.13Q114.97-19.35 115.16-19.53 115.33-19.71 115.56-19.71L115.56-19.71 121.77-19.71Q122.08-19.71 122.24-19.55 122.4-19.39 122.4-19.13L122.4-19.13Q122.4-18.9 122.22-18.72 122.04-18.54 121.77-18.54L121.77-18.54 115.56-18.54ZM129.1-18.54Q128.88-18.54 128.72-18.72 128.56-18.9 128.56-19.13L128.56-19.13Q128.56-19.35 128.72-19.53 128.88-19.71 129.1-19.71L129.1-19.71 135.31-19.71Q135.63-19.71 135.79-19.55 135.94-19.39 135.94-19.13L135.94-19.13Q135.94-18.9 135.76-18.72 135.59-18.54 135.31-18.54L135.31-18.54 129.1-18.54ZM114.53-15.12Q114.53-15.34 114.7-15.52 114.89-15.71 115.11-15.71L115.11-15.71 121.77-15.71Q122.08-15.71 122.24-15.55 122.4-15.39 122.4-15.12L122.4-15.12Q122.4-14.89 122.22-14.71 122.04-14.54 121.77-14.54L121.77-14.54 115.11-14.54Q114.89-14.54 114.7-14.71 114.53-14.89 114.53-15.12L114.53-15.12ZM129.1-14.54Q128.88-14.54 128.72-14.71 128.56-14.89 128.56-15.12L128.56-15.12Q128.56-15.34 128.72-15.52 128.88-15.71 129.1-15.71L129.1-15.71 135.81-15.71Q136.13-15.71 136.28-15.55 136.44-15.39 136.44-15.12L136.44-15.12Q136.44-14.89 136.26-14.71 136.08-14.54 135.81-14.54L135.81-14.54 129.1-14.54ZM134.55-11.65Q134.69-11.7 135.18-11.83 135.68-11.97 136.17-11.97L136.17-11.97Q137.43-11.97 137.43-10.84L137.43-10.84 137.43 3.28Q137.43 4.14 136.13 4.14L136.13 4.14Q135.63 4.14 135.16 4.05 134.69 3.96 134.55 3.92L134.55 3.92 134.55 2.65 117.31 2.65 117.31 3.28Q117.31 4.14 116.1 4.14L116.1 4.14Q115.65 4.14 115.18 4.03 114.7 3.92 114.57 3.87L114.57 3.87 114.57-11.65Q114.7-11.7 115.18-11.83 115.65-11.97 116.1-11.97L116.1-11.97Q117.31-11.97 117.31-10.84L117.31-10.84 134.55-10.84 134.55-11.65ZM124.65-4.95L124.65-9.63 117.31-9.63 117.31-4.95 124.65-4.95ZM134.55-4.95L134.55-9.63 127.39-9.63 127.39-4.95 134.55-4.95ZM124.65-3.73L117.31-3.73 117.31 1.44 124.65 1.44 124.65-3.73ZM127.39-3.73L127.39 1.44 134.55 1.44 134.55-3.73 127.39-3.73Z" transform="translate(-1.1700000762939453, 31.59000015258789)"></path></g> <!----> <!----> <!----> <!----> <!----> <!----> <!----></g></g> <g data-gra="path-slogan" fill-rule="" class="tp-slogan iconsvg-slogansvg" fill="#ed632b" transform="translate(22.549442291259766,42.810001373291016)"><!----> <!----> <g transform="scale(1, 1)"><g transform="scale(1)"><path d="M7.31-3.61L4.69-3.61L4.69-4.59L8.44-4.59L8.44 0L7.69 0L7.41-1.08Q6.42 0.09 4.59 0.14L4.59 0.14Q2.86 0.14 1.92-0.75L1.92-0.75Q0.52-2.06 0.56-4.36L0.56-4.36Q0.89-8.63 4.64-8.81L4.64-8.81Q7.83-8.63 8.30-6L8.30-6L7.17-6Q6.70-7.78 4.59-7.83L4.59-7.83Q1.92-7.64 1.78-4.31L1.78-4.31Q1.78-0.75 4.64-0.75L4.64-0.75Q5.67-0.75 6.42-1.31L6.42-1.31Q7.36-2.06 7.31-3.61L7.31-3.61ZM15.89 0L15.05-2.48L11.58-2.48L10.69 0L9.52 0L12.75-8.58L14.06-8.58L17.16 0L15.89 0ZM13.31-7.31L11.95-3.52L14.63-3.52L13.36-7.31L13.31-7.31ZM19.59-8.58L23.91-1.64L23.91-8.58L25.03-8.58L25.03 0L23.72 0L19.36-6.94L19.31-6.94L19.31 0L18.19 0L18.19-8.58L19.59-8.58ZM33.09-6.09L33.09-6.09L32.02-6.09Q31.92-7.73 29.86-7.83L29.86-7.83Q27.94-7.78 27.94-6.33L27.94-6.33Q27.94-5.39 28.97-5.25L28.97-5.25L31.41-4.69Q33.33-4.22 33.33-2.34L33.33-2.34Q33.28 0.05 29.95 0.14L29.95 0.14Q28.13 0.14 27.38-0.61L27.38-0.61Q26.44-1.31 26.48-2.77L26.48-2.77L27.61-2.77Q27.66-0.80 29.95-0.75L29.95-0.75Q32.20-0.80 32.25-2.20L32.25-2.20Q32.44-3.38 30.38-3.75L30.38-3.75L28.59-4.13Q26.77-4.64 26.77-6.19L26.77-6.19Q26.91-8.72 29.77-8.81L29.77-8.81Q33-8.81 33.09-6.09ZM40.45-3.19L40.45-8.58L41.63-8.58L41.63-3.05Q41.48 0.05 38.11 0.14L38.11 0.14Q34.97 0.05 34.83-2.86L34.83-2.86L34.83-8.58L36-8.58L36-3.19Q36.05-0.84 38.16-0.80L38.16-0.80Q40.45-0.84 40.45-3.19L40.45-3.19ZM52.27-3.89L48.05-3.89L48.05 0L46.88 0L46.88-8.58L52.83-8.58L52.83-7.59L48.05-7.59L48.05-4.92L52.27-4.92L52.27-3.89ZM55.31-1.03L60.47-1.03L60.47 0L54.14 0L54.14-8.58L60.38-8.58L60.38-7.59L55.31-7.59L55.31-4.92L60-4.92L60-3.89L55.31-3.89L55.31-1.03ZM63.38-8.58L67.69-1.64L67.69-8.58L68.81-8.58L68.81 0L67.50 0L63.14-6.94L63.09-6.94L63.09 0L61.97 0L61.97-8.58L63.38-8.58ZM77.02-3.61L74.39-3.61L74.39-4.59L78.14-4.59L78.14 0L77.39 0L77.11-1.08Q76.13 0.09 74.30 0.14L74.30 0.14Q72.56 0.14 71.63-0.75L71.63-0.75Q70.22-2.06 70.27-4.36L70.27-4.36Q70.59-8.63 74.34-8.81L74.34-8.81Q77.53-8.63 78-6L78-6L76.88-6Q76.41-7.78 74.30-7.83L74.30-7.83Q71.63-7.64 71.48-4.31L71.48-4.31Q71.48-0.75 74.34-0.75L74.34-0.75Q75.38-0.75 76.13-1.31L76.13-1.31Q77.06-2.06 77.02-3.61L77.02-3.61ZM79.92-8.58L81.09-8.58L81.09-1.03L85.45-1.03L85.45 0L79.92 0L79.92-8.58ZM87.89-1.03L93.05-1.03L93.05 0L86.72 0L86.72-8.58L92.95-8.58L92.95-7.59L87.89-7.59L87.89-4.92L92.58-4.92L92.58-3.89L87.89-3.89L87.89-1.03ZM94.73-8.58L95.91-8.58L95.91 0L94.73 0L94.73-8.58Z" transform="translate(-0.5609879032258065, 8.8125)"></path></g></g></g></g></g><defs v-gra="od"></defs></svg>